PathFileType	4	(X/Y/Z)	/home/lloyd/projects/artisynth/mainroot/artisynth_core/src/artisynth/demos/tutorial/data/multiJointMkrs.trc
DataRate	CameraRate	NumFrames	NumMarkers	Units	OrigDataRate	OrigDataStartFrame	OrigNumFrames
50	50	27	5	mm	50	76	151
Frame#	Time	mkr1			mkr2			mkr3			mkr4			mkr5		
		X1	Y1	Z1	X2	Y2	Z2	X3	Y3	Z3	X4	Y4	Z4	X5	Y5	Z5

76	 1.5000000	-0.1000000	 0.2828427	-0.2828427	 0.1000000	 0.2828427	-0.2828427	-0.0750000	 0.4242641	-1.0242641	 0.0750000	 0.4242641	-1.0242641	-0.0000000	 0.4242641	-1.2992641
77	 1.5200000	-0.0880681	 0.2867822	-0.2828427	 0.1117565	 0.2784070	-0.2828427	-0.0571679	 0.4270326	-1.0242641	 0.0927005	 0.4207512	-1.0242641	 0.0177663	 0.4238919	-1.2992641
78	 1.5400000	-0.0759816	 0.2902185	-0.2828427	 0.1233170	 0.2734830	-0.2828427	-0.0392355	 0.4290520	-1.0242641	 0.1102385	 0.4165003	-1.0242641	 0.0355015	 0.4227761	-1.2992641
79	 1.5600000	-0.0637619	 0.2931457	-0.2828427	 0.1346611	 0.2680791	-0.2828427	-0.0212342	 0.4303186	-1.0242641	 0.1275830	 0.4115186	-1.0242641	 0.0531744	 0.4209186	-1.2992641
80	 1.5800000	-0.0514303	 0.2955587	-0.2828427	 0.1457689	 0.2622049	-0.2828427	-0.0031957	 0.4308303	-1.0242641	 0.1447037	 0.4058150	-1.0242641	 0.0707540	 0.4183227	-1.2992641
81	 1.6000000	-0.0390085	 0.2974531	-0.2828427	 0.1566211	 0.2558708	-0.2828427	 0.0148484	 0.4305863	-1.0242641	 0.1615705	 0.3993995	-1.0242641	 0.0882095	 0.4149929	-1.2992641
82	 1.6200000	-0.0265182	 0.2988257	-0.2828427	 0.1671984	 0.2490877	-0.2828427	 0.0328664	 0.4295868	-1.0242641	 0.1781539	 0.3922833	-1.0242641	 0.1055102	 0.4109350	-1.2992641
83	 1.6400000	-0.0139814	 0.2996740	-0.2828427	 0.1774825	 0.2418677	-0.2828427	 0.0508268	 0.4278336	-1.0242641	 0.1944248	 0.3844789	-1.0242641	 0.1226258	 0.4061563	-1.2992641
84	 1.6600000	-0.0014201	 0.2999966	-0.2828427	 0.1874552	 0.2342233	-0.2828427	 0.0686981	 0.4253300	-1.0242641	 0.2103545	 0.3760000	-1.0242641	 0.1395263	 0.4006650	-1.2992641
85	 1.6800000	 0.0111437	 0.2997930	-0.2828427	 0.1970990	 0.2261680	-0.2828427	 0.0864488	 0.4220801	-1.0242641	 0.2259153	 0.3668614	-1.0242641	 0.1561820	 0.3944708	-1.2992641
86	 1.7000000	 0.0236879	 0.2990633	-0.2828427	 0.2063970	 0.2177160	-0.2828427	 0.1040478	 0.4180898	-1.0242641	 0.2410797	 0.3570793	-1.0242641	 0.1725637	 0.3875845	-1.2992641
87	 1.7200000	 0.0361906	 0.2978091	-0.2828427	 0.2153330	 0.2088820	-0.2828427	 0.1214643	 0.4133660	-1.0242641	 0.2558211	 0.3466707	-1.0242641	 0.1886427	 0.3800183	-1.2992641
88	 1.7400000	 0.0486298	 0.2960323	-0.2828427	 0.2238912	 0.1996816	-0.2828427	 0.1386678	 0.4079170	-1.0242641	 0.2701138	 0.3356539	-1.0242641	 0.2043908	 0.3717854	-1.2992641
89	 1.7600000	 0.0609837	 0.2937362	-0.2828427	 0.2320566	 0.1901308	-0.2828427	 0.1556279	 0.4017523	-1.0242641	 0.2839326	 0.3240483	-1.0242641	 0.2197802	 0.3629003	-1.2992641
90	 1.7800000	 0.0732306	 0.2909249	-0.2828427	 0.2398149	 0.1802465	-0.2828427	 0.1723151	 0.3948829	-1.0242641	 0.2972532	 0.3118742	-1.0242641	 0.2347842	 0.3533786	-1.2992641
91	 1.8000000	 0.0853491	 0.2876031	-0.2828427	 0.2471525	 0.1700460	-0.2828427	 0.1886999	 0.3873207	-1.0242641	 0.3100524	 0.2991529	-1.0242641	 0.2493762	 0.3432368	-1.2992641
92	 1.8200000	 0.0973178	 0.2837768	-0.2828427	 0.2540565	 0.1595472	-0.2828427	 0.2047537	 0.3790791	-1.0242641	 0.3223077	 0.2859069	-1.0242641	 0.2635307	 0.3324930	-1.2992641
93	 1.8400000	 0.1091158	 0.2794526	-0.2828427	 0.2605148	 0.1487685	-0.2828427	 0.2204483	 0.3701723	-1.0242641	 0.3339975	 0.2721593	-1.0242641	 0.2772229	 0.3211658	-1.2992641
94	 1.8600000	 0.1207223	 0.2746382	-0.2828427	 0.2665160	 0.1377288	-0.2828427	 0.2357561	 0.3606162	-1.0242641	 0.3451014	 0.2579342	-1.0242641	 0.2904287	 0.3092752	-1.2992641
95	 1.8800000	 0.1321171	 0.2693419	-0.2828427	 0.2720497	 0.1264474	-0.2828427	 0.2506503	 0.3504275	-1.0242641	 0.3555998	 0.2432566	-1.0242641	 0.3031251	 0.2968420	-1.2992641
96	 1.9000000	 0.1432800	 0.2635732	-0.2828427	 0.2771062	 0.1149442	-0.2828427	 0.2651049	 0.3396239	-1.0242641	 0.3654744	 0.2281522	-1.0242641	 0.3152896	 0.2838881	-1.2992641
97	 1.9200000	 0.1541917	 0.2573421	-0.2828427	 0.2816765	 0.1032394	-0.2828427	 0.2790943	 0.3282246	-1.0242641	 0.3747079	 0.2126476	-1.0242641	 0.3269011	 0.2704361	-1.2992641
98	 1.9400000	 0.1648328	 0.2506594	-0.2828427	 0.2857526	 0.0913535	-0.2828427	 0.2925941	 0.3162494	-1.0242641	 0.3832840	 0.1967699	-1.0242641	 0.3379390	 0.2565097	-1.2992641
99	 1.9600000	 0.1751847	 0.2435371	-0.2828427	 0.2893274	 0.0793073	-0.2828427	 0.3055806	 0.3037195	-1.0242641	 0.3911876	 0.1805471	-1.0242641	 0.3483841	 0.2421333	-1.2992641
100	 1.9800000	 0.1852293	 0.2359875	-0.2828427	 0.2923947	 0.0671219	-0.2828427	 0.3180310	 0.2906567	-1.0242641	 0.3984050	 0.1640075	-1.0242641	 0.3582180	 0.2273321	-1.2992641
101	 2.0000000	 0.1949490	 0.2280239	-0.2828427	 0.2949490	 0.0548188	-0.2828427	 0.3299235	 0.2770839	-1.0242641	 0.4049235	 0.1471801	-1.0242641	 0.3674235	 0.2121320	-1.2992641
102	 2.0200000	 0.2043266	 0.2196603	-0.2828427	 0.2969858	 0.0424195	-0.2828427	 0.3412371	 0.2630251	-1.0242641	 0.4107315	 0.1300946	-1.0242641	 0.3759843	 0.1965599	-1.2992641
